<svg xmlns="http://www.w3.org/2000/svg" width="1400" height="820" viewBox="0 0 1400 820" role="img" aria-label="Devflow landing graphic">
  <defs>
    <linearGradient id="bg" x1="0" y1="0" x2="1" y2="1">
      <stop offset="0%" stop-color="#061a24"/>
      <stop offset="100%" stop-color="#12354d"/>
    </linearGradient>
    <linearGradient id="line" x1="0" y1="0" x2="1" y2="0">
      <stop offset="0%" stop-color="#22d3ee"/>
      <stop offset="100%" stop-color="#34d399"/>
    </linearGradient>
  </defs>
  <rect width="1400" height="820" fill="url(#bg)"/>
  <g opacity="0.35" stroke="url(#line)" stroke-width="2" fill="none">
    <path d="M80 150h260l80 80h220l70-70h280"/>
    <path d="M120 300h230l60 60h180l90-90h330"/>
    <path d="M60 460h280l90 90h250l70-70h260"/>
    <path d="M100 620h220l80-80h240l90 90h310"/>
  </g>
  <g fill="#e2e8f0" opacity="0.95">
    <rect x="80" y="120" width="140" height="60" rx="12"/>
    <rect x="420" y="200" width="180" height="60" rx="12"/>
    <rect x="700" y="280" width="170" height="60" rx="12"/>
    <rect x="1000" y="120" width="220" height="60" rx="12"/>
  </g>
  <g fill="#0f172a" font-family="ui-monospace, SFMono-Regular, Menlo, Monaco, Consolas, monospace" font-size="22">
    <text x="100" y="158">dwf check:pr</text>
    <text x="450" y="238">targets.pr</text>
    <text x="730" y="318">ext-rust</text>
    <text x="1030" y="158">.github/workflows</text>
  </g>
</svg>
